<?xml version="1.0" encoding="UTF-8" standalone="no"?>
<svg width="376px" height="148px" viewBox="0 0 376 148" version="1.1" xmlns="http://www.w3.org/2000/svg" xmlns:xlink="http://www.w3.org/1999/xlink" xmlns:sketch="http://www.bohemiancoding.com/sketch/ns">
    <!-- Generator: Sketch 3.5.2 (25235) - http://www.bohemiancoding.com/sketch -->
    <title>dirt</title>
    <desc>Created with Sketch.</desc>
    <defs>
        <linearGradient x1="-0.000697819315%" y1="-96.2978064%" x2="99.9993103%" y2="-96.2978064%" id="linearGradient-1">
            <stop stop-color="#593D09" offset="0%"></stop>
            <stop stop-color="#7F5200" offset="100%"></stop>
        </linearGradient>
        <linearGradient x1="-1.4005154e-14%" y1="-96.3645412%" x2="100%" y2="-96.3645412%" id="linearGradient-2">
            <stop stop-color="#563B09" offset="0%"></stop>
            <stop stop-color="#291D04" offset="100%"></stop>
        </linearGradient>
    </defs>
    <g id="Page-1" stroke="none" stroke-width="1" fill="none" fill-rule="evenodd" sketch:type="MSPage">
        <g id="dirt" sketch:type="MSLayerGroup" transform="translate(-0.003290, 0.157900)">
            <path d="M273.22204,0.12979 C269.17521,0.12979 265.47478,1.40216 262.59704,3.53604 C260.26368,2.42498 257.58808,1.78604 254.75329,1.78604 C245.60046,1.78604 238.19079,8.36749 238.19079,16.47354 C238.19079,18.06197 238.47626,19.60338 239.00329,21.03604 C236.42118,23.62415 234.84704,26.99833 234.84704,30.72354 C234.84704,31.98341 235.04117,33.21298 235.37829,34.37979 C233.89426,34.80651 232.52069,35.40272 231.25329,36.16104 C228.78169,37.29173 226.64871,38.91508 225.09704,40.94229 C225.09404,40.94329 225.10004,40.97229 225.09704,40.97349 C223.55186,41.55256 222.09643,42.1943 220.72204,42.91099 C218.10363,36.84942 213.10613,32.45176 207.15954,31.41099 C204.08002,28.63211 200.25302,26.97349 196.06579,26.97349 C192.10795,26.97349 188.43094,28.43373 185.44079,30.94224 C182.6692,28.95256 179.4292,27.78599 175.94079,27.78599 C166.43761,27.78599 158.64584,36.31926 157.78454,47.19224 C156.09677,46.58848 154.29715,46.25474 152.44079,46.25474 C146.83626,46.25474 141.8198,49.22035 138.47204,53.87974 C137.54794,53.83394 136.6027,53.78604 135.65954,53.78604 C132.71907,53.78604 129.88544,54.01569 127.15954,54.44229 C124.00602,48.04064 118.10794,43.72354 111.34704,43.72354 C103.67616,43.72354 97.10914,49.27268 94.40954,57.12979 C91.53972,49.72729 85.20599,44.56729 77.81579,44.56729 C72.24102,44.56729 67.2571,47.51311 63.90954,52.12979 C61.7329,51.05546 59.35711,50.44229 56.84704,50.44229 C49.30923,50.44229 42.8183,55.80124 40.03454,63.44229 C37.33194,61.58838 34.20472,60.50479 30.84704,60.50479 C24.07391,60.50479 18.15254,64.83398 15.00329,71.25479 C13.69049,70.58094 12.21575,70.19229 10.69079,70.19229 C4.78227,70.19229 0.00329,75.79945 0.00329,82.72354 C0.00329,89.64763 4.78227,95.25479 10.69079,95.25479 C12.48413,95.25479 14.20622,94.76244 15.69079,93.84854 C15.75429,93.95873 15.84432,94.05232 15.90954,94.16104 C17.30969,98.18434 20.44324,101.15366 24.22204,101.81729 C26.27335,102.75278 28.5134,103.28604 30.84704,103.28604 C34.12752,103.28604 37.18678,102.24914 39.84704,100.47354 C41.13536,105.70231 45.25155,109.53604 50.12829,109.53604 C50.91096,109.53604 51.67499,109.44154 52.40954,109.25479 C54.72429,110.37383 57.29539,111.00479 60.00329,111.00479 C62.29555,111.00479 64.47958,110.53943 66.50329,109.72354 C68.38986,111.68849 70.87166,112.87979 73.59704,112.87979 C76.99275,112.87979 80.01222,111.02111 81.97204,108.12979 C86.37463,116.05092 98.08096,121.86783 112.12829,122.50479 C113.97346,126.27291 117.43641,128.81729 121.40954,128.81729 C124.97185,128.81729 128.12134,126.76768 130.06579,123.62979 C131.07757,124.7074 132.2129,125.74453 133.50329,126.69229 C134.33241,132.64927 138.74812,137.19229 144.06579,137.19229 C146.96106,137.19229 149.57721,135.85043 151.50329,133.66104 L151.78454,133.69224 C153.39561,138.22594 157.20724,141.41099 161.65954,141.41099 C162.9381,141.41099 164.17919,141.14308 165.31579,140.66099 C171.64937,145.0025 180.83141,147.72349 191.03454,147.72349 C204.56126,147.72349 216.24961,142.93352 221.94079,135.94224 C222.7167,135.90924 223.49229,135.85004 224.25329,135.78599 C226.39302,136.7038 228.76276,137.25474 231.28454,137.25474 C238.19783,137.25474 244.11164,133.39079 246.59704,127.91099 C247.01192,127.5897 247.39962,127.27824 247.78454,126.94224 C248.69116,127.08218 249.61544,127.19224 250.56579,127.19224 C252.00123,127.19224 253.39378,127.00474 254.72204,126.69224 C256.56721,130.46036 260.03016,133.00474 264.00329,133.00474 C268.32007,133.00474 272.03122,130.00682 273.72204,125.69224 C274.64775,125.8343 275.59422,125.91099 276.56579,125.91099 C279.72756,125.91099 282.67704,125.11543 285.19079,123.75474 C287.10382,125.8556 289.67468,127.12974 292.50329,127.12974 C297.04373,127.12974 300.91878,123.80682 302.47204,119.12974 C302.91852,119.17634 303.36001,119.22344 303.81579,119.22344 C304.939,119.22344 306.03653,119.06078 307.09704,118.78594 C308.87914,120.34158 311.07904,121.25469 313.47204,121.25469 C317.8823,121.25469 321.67881,118.12649 323.31579,113.66094 C325.82672,115.05604 328.78449,115.84844 331.94079,115.84844 C338.38171,115.84844 343.94799,112.51862 346.69079,107.62969 C348.60731,108.33508 350.71554,108.72344 352.90954,108.72344 C362.06237,108.72344 369.47204,101.96734 369.47204,93.62969 C369.47204,92.64206 369.35831,91.68941 369.15954,90.75469 C370.43518,88.6156 371.15954,86.17271 371.15954,83.56719 C371.15954,78.7006 368.61567,74.39046 364.69079,71.62969 C365.07188,70.35915 365.28454,69.01033 365.28454,67.62969 C365.28454,59.29204 357.84362,52.53594 348.69079,52.53594 C347.88115,52.53594 347.09437,52.62124 346.31579,52.72344 C346.63542,51.58534 346.81579,50.41789 346.81579,49.19219 C346.81579,41.08614 339.40612,34.50469 330.25329,34.50469 C329.98868,34.50469 329.73362,34.52509 329.47204,34.53589 C327.62377,30.78163 324.15508,28.25464 320.19079,28.25464 C318.64192,28.25464 317.17603,28.65444 315.84704,29.34839 C311.74446,22.31857 301.84768,17.00894 289.72204,15.59839 C289.73884,15.32744 289.78454,15.06056 289.78454,14.78589 C289.78454,6.67984 282.37487,0.12964 273.22204,0.12964 L273.22204,0.12979 Z M314.94079,54.81729 C315.55878,56.13513 316.40756,57.35135 317.40954,58.44229 C316.48971,58.32049 315.5424,58.23666 314.59704,58.16104 C314.84173,57.15766 314.94079,56.1355 314.94079,55.06729 C314.94079,54.98299 314.94279,54.90124 314.94079,54.81729 L314.94079,54.81729 Z M278.37829,57.78604 C279.60611,57.89362 280.86253,57.9478 282.12829,57.97354 C282.28858,58.67482 282.54698,59.34366 282.81579,60.00479 C281.38633,59.31247 279.8507,58.70948 278.25329,58.16104 C278.29269,58.03623 278.34249,57.91217 278.37829,57.78604 L278.37829,57.78604 Z" id="Shape" fill="url(#linearGradient-1)" sketch:type="MSShapeGroup"></path>
            <path d="M273.64503,0.22809 C269.5982,0.22809 265.89777,1.50046 263.02003,3.63434 C260.68667,2.52328 258.01107,1.88434 255.17628,1.88434 C253.78009,1.88434 252.43998,2.06475 251.14503,2.35309 C254.0698,4.58063 256.82915,6.90943 259.36378,9.29059 C270.6632,10.53646 279.42628,19.54934 279.42628,30.50934 C279.42628,32.89847 279.0074,35.20768 278.23878,37.35309 C279.88367,42.36345 280.77003,47.51812 280.77003,52.79059 C280.77003,52.81059 280.77006,52.83209 280.77003,52.85309 C285.22073,56.75699 287.98878,62.30329 287.98878,68.47809 C287.98878,80.18299 277.98675,89.71329 265.58253,89.88439 C265.20478,90.32019 264.81687,90.76499 264.42628,91.19679 C265.39411,93.34099 265.92628,95.65299 265.92628,98.04059 C265.92628,109.85229 253.10638,119.41559 237.27003,119.41559 C235.86104,119.41559 234.46836,119.34329 233.11378,119.19679 C230.68336,129.53889 216.27148,137.47809 198.86378,137.47809 C192.78733,137.47809 187.07698,136.52189 182.11378,134.82179 C178.80444,138.62739 174.07047,141.40809 168.64503,142.54059 C174.7396,145.84619 182.71134,147.82179 191.45753,147.82179 C204.98425,147.82179 216.6726,143.03179 222.36378,136.04059 C223.13969,136.00759 223.91528,135.94869 224.67628,135.88439 C226.81601,136.80209 229.18575,137.35309 231.70753,137.35309 C238.62082,137.35309 244.53463,133.48919 247.02003,128.00939 C247.43491,127.68799 247.82261,127.37659 248.20753,127.04059 C249.11415,127.18049 250.03843,127.29059 250.98878,127.29059 C252.42422,127.29059 253.81677,127.10309 255.14503,126.79059 C256.9902,130.55869 260.45315,133.10309 264.42628,133.10309 C268.74306,133.10309 272.45421,130.10509 274.14503,125.79059 C275.07074,125.93259 276.01721,126.00939 276.98878,126.00939 C280.15055,126.00939 283.10003,125.21379 285.61378,123.85309 C287.52681,125.95389 290.09767,127.22809 292.92628,127.22809 C297.46672,127.22809 301.34177,123.90509 302.89503,119.22809 C303.34151,119.27509 303.783,119.32179 304.23878,119.32179 C305.36199,119.32179 306.45952,119.15919 307.52003,118.88439 C309.30213,120.43989 311.50203,121.35309 313.89503,121.35309 C318.30529,121.35309 322.1018,118.22479 323.73878,113.75939 C326.24971,115.15439 329.20748,115.94679 332.36378,115.94679 C338.8047,115.94679 344.37098,112.61699 347.11378,107.72809 C349.0303,108.43349 351.13853,108.82179 353.33253,108.82179 C362.48536,108.82179 369.89503,102.06579 369.89503,93.72809 C369.89503,92.74049 369.7813,91.78779 369.58253,90.85309 C370.85817,88.71399 371.58253,86.27109 371.58253,83.66559 C371.58253,78.79899 369.03866,74.48889 365.11378,71.72809 C365.49487,70.45759 365.70753,69.10879 365.70753,67.72809 C365.70753,59.39049 358.26661,52.63429 349.11378,52.63439 C348.30414,52.63439 347.51736,52.71939 346.73878,52.82179 C347.05841,51.68369 347.23878,50.51629 347.23878,49.29059 C347.23878,41.18455 339.82911,34.60309 330.67628,34.60309 C330.41167,34.60309 330.15661,34.62359 329.89503,34.63429 C328.04676,30.88003 324.57807,28.35304 320.61378,28.35304 C319.06491,28.35304 317.59902,28.75284 316.27003,29.44679 C312.16745,22.41697 302.27067,17.10734 290.14503,15.69679 C290.16183,15.42584 290.20753,15.15896 290.20753,14.88429 C290.20753,6.77824 282.79786,0.22804 273.64503,0.22804 L273.64503,0.22809 Z M315.36378,54.91559 C315.98177,56.23349 316.83055,57.44969 317.83253,58.54059 C316.9127,58.41879 315.96539,58.33489 315.02003,58.25939 C315.26472,57.25589 315.36378,56.23379 315.36378,55.16559 C315.36378,55.08159 315.36578,54.99959 315.36378,54.91559 L315.36378,54.91559 Z" id="Shape" fill="url(#linearGradient-2)" sketch:type="MSShapeGroup"></path>
            <path d="M161.4201,114.54007 C162.87124,114.54007 164.22553,114.96155 165.37434,115.67303 L165.47434,115.67303 C169.49878,115.67303 172.7926,118.82961 172.99406,122.80399 C173.00106,122.93219 172.99406,123.06293 172.99406,123.19275 C172.99406,124.2817 172.75438,125.31326 172.33872,126.24729 C173.14032,127.44321 173.60497,128.87467 173.60497,130.42367 C173.60497,130.55349 173.61197,130.68423 173.60497,130.81243 C173.40351,134.78681 170.10969,137.94339 166.08525,137.94339 C165.68762,137.94339 165.30007,137.91359 164.91897,137.85449 C163.73875,138.62472 162.32424,139.07631 160.80923,139.07631 C159.34187,139.07631 157.96812,138.65873 156.81056,137.93225 C156.66333,137.94125 156.51576,137.94335 156.36626,137.94335 C152.212,137.94335 148.83543,134.57789 148.83543,130.42363 C148.83543,129.32939 149.08012,128.29387 149.50188,127.35798 C148.69815,126.16497 148.22453,124.74041 148.22453,123.1927 C148.22453,119.03844 151.6011,115.67298 155.75535,115.67298 C156.26247,115.67298 156.75465,115.72238 157.23264,115.81738 C158.43118,115.01102 159.86711,114.54002 161.42013,114.54002 L161.4201,114.54007 Z" id="Shape" stroke="#000000" stroke-width="1.06631" fill="#734B02" sketch:type="MSShapeGroup"></path>
            <path d="M163.31979,116.94121 C164.77092,116.94121 166.12521,117.36269 167.27403,118.07417 L167.37403,118.07417 C171.39847,118.07417 174.69229,121.23075 174.89375,125.20513 C174.90075,125.33333 174.89375,125.46407 174.89375,125.59389 C174.89375,126.68284 174.65407,127.7144 174.23841,128.64842 C175.04001,129.84435 175.50466,131.27581 175.50466,132.82481 C175.50466,132.95463 175.51166,133.08537 175.50466,133.21357 C175.3032,137.18795 172.00938,140.34453 167.98494,140.34453 C167.58731,140.34453 167.19976,140.31463 166.81866,140.25563 C165.63844,141.02586 164.22393,141.47745 162.70892,141.47745 C161.24156,141.47745 159.86781,141.05987 158.71025,140.33338 C158.56302,140.34238 158.41545,140.34448 158.26595,140.34448 C154.11169,140.34448 150.73513,136.97903 150.73513,132.82476 C150.73513,131.73053 150.97981,130.69501 151.40157,129.75912 C150.59784,128.56611 150.12422,127.14155 150.12422,125.59384 C150.12422,121.43958 153.50079,118.07412 157.65504,118.07412 C158.16216,118.07412 158.65434,118.12352 159.13233,118.21851 C160.33087,117.41216 161.7668,116.94116 163.31983,116.94116 L163.31979,116.94121 Z" id="Shape" fill="#3B2906" sketch:type="MSShapeGroup"></path>
            <path d="M244.52054,113.99717 C245.97168,113.99717 247.32597,114.41865 248.47478,115.13013 L248.57478,115.13013 C252.59922,115.13013 255.89304,118.28671 256.0945,122.26109 C256.1015,122.38929 256.0945,122.52003 256.0945,122.64985 C256.0945,123.7388 255.85482,124.77036 255.43916,125.70439 C256.24076,126.90031 256.70541,128.33177 256.70541,129.88077 C256.70541,130.01059 256.71241,130.14133 256.70541,130.26953 C256.50395,134.24391 253.21013,137.40049 249.18569,137.40049 C248.78806,137.40049 248.40051,137.37069 248.01941,137.31159 C246.83919,138.08182 245.42468,138.53341 243.90967,138.53341 C242.44231,138.53341 241.06856,138.11583 239.911,137.38935 C239.76377,137.39835 239.6162,137.40045 239.4667,137.40045 C235.31244,137.40045 231.93587,134.03499 231.93587,129.88073 C231.93587,128.78649 232.18056,127.75097 232.60232,126.81508 C231.79859,125.62207 231.32497,124.19751 231.32497,122.6498 C231.32497,118.49554 234.70154,115.13008 238.85579,115.13008 C239.36291,115.13008 239.85509,115.17948 240.33308,115.27448 C241.53162,114.46812 242.96755,113.99712 244.52057,113.99712 L244.52054,113.99717 Z" id="Shape" stroke="#000000" stroke-width="1.06631" fill="#734B02" sketch:type="MSShapeGroup"></path>
            <path d="M246.42023,116.39831 C247.87136,116.39831 249.22565,116.81979 250.37447,117.53127 L250.47447,117.53127 C254.49891,117.53127 257.79273,120.68785 257.99419,124.66223 C258.00119,124.79043 257.99419,124.92117 257.99419,125.05099 C257.99419,126.13994 257.75451,127.1715 257.33885,128.10552 C258.14045,129.30145 258.6051,130.73291 258.6051,132.28191 C258.6051,132.41173 258.6121,132.54247 258.6051,132.67067 C258.40364,136.64505 255.10982,139.80163 251.08538,139.80163 C250.68775,139.80163 250.3002,139.77173 249.9191,139.71273 C248.73888,140.48296 247.32437,140.93455 245.80936,140.93455 C244.342,140.93455 242.96825,140.51697 241.81069,139.79048 C241.66346,139.79948 241.51589,139.80158 241.36639,139.80158 C237.21213,139.80158 233.83557,136.43613 233.83557,132.28186 C233.83557,131.18763 234.08025,130.15211 234.50201,129.21622 C233.69828,128.02321 233.22466,126.59865 233.22466,125.05094 C233.22466,120.89668 236.60123,117.53122 240.75548,117.53122 C241.2626,117.53122 241.75478,117.58062 242.23277,117.67561 C243.43131,116.86926 244.86724,116.39826 246.42027,116.39826 L246.42023,116.39831 Z" id="Shape" fill="#3B2906" sketch:type="MSShapeGroup"></path>
            <path d="M353.45451,67.41239 C355.69323,67.41239 357.78253,68.06262 359.55483,69.16024 L359.7091,69.16024 C365.91771,69.16024 370.99918,74.02998 371.30998,80.16137 C371.32078,80.35915 371.30998,80.56084 371.30998,80.76112 C371.30998,82.44107 370.94022,84.03249 370.29897,85.47344 C371.53562,87.31842 372.25245,89.52677 372.25245,91.91646 C372.25245,92.11673 372.26325,92.31843 372.25245,92.51621 C371.94165,98.64759 366.86018,103.51733 360.65157,103.51733 C360.03813,103.51733 359.44025,103.47133 358.85232,103.38019 C357.03156,104.56844 354.84936,105.26512 352.51211,105.26512 C350.24837,105.26512 348.12905,104.62091 346.34325,103.50015 C346.11611,103.51405 345.88845,103.51725 345.65782,103.51725 C339.24893,103.51725 334.0398,98.32527 334.0398,91.91638 C334.0398,90.22826 334.41729,88.63074 335.06795,87.18691 C333.82801,85.34642 333.09735,83.14872 333.09735,80.76102 C333.09735,74.35213 338.30647,69.16014 344.71535,69.16014 C345.4977,69.16014 346.257,69.23634 346.9944,69.38291 C348.84343,68.13892 351.05867,67.4123 353.45456,67.4123 L353.45451,67.41239 Z" id="Shape" stroke="#000000" stroke-width="1.64503" fill="#734B02" sketch:type="MSShapeGroup"></path>
            <path d="M356.38522,71.1167 C358.62392,71.1167 360.71322,71.76693 362.48553,72.86455 L362.6398,72.86455 C368.84842,72.86455 373.92988,77.73429 374.24068,83.86567 C374.25148,84.06345 374.24068,84.26515 374.24068,84.46542 C374.24068,86.14538 373.87092,87.73679 373.22967,89.17773 C374.46632,91.02272 375.18315,93.23108 375.18315,95.62076 C375.18315,95.82104 375.19395,96.02273 375.18315,96.22051 C374.87235,102.3519 369.79089,107.22164 363.58227,107.22164 C362.96884,107.22164 362.37095,107.17554 361.78302,107.08449 C359.96226,108.27275 357.78006,108.96943 355.44281,108.96943 C353.17908,108.96943 351.05975,108.32521 349.27395,107.20444 C349.04682,107.21834 348.81916,107.22154 348.58852,107.22154 C342.17963,107.22154 336.97052,102.02957 336.97052,95.62066 C336.97052,93.93257 337.34799,92.33504 337.99865,90.89122 C336.75872,89.05073 336.02805,86.85302 336.02805,84.46533 C336.02805,78.05644 341.23718,72.86445 347.64605,72.86445 C348.4284,72.86445 349.1877,72.94065 349.92511,73.0872 C351.77413,71.84323 353.98938,71.1166 356.38528,71.1166 L356.38522,71.1167 Z" id="Shape" fill="#3B2906" sketch:type="MSShapeGroup"></path>
            <path d="M303.21273,46.93836 C304.75149,46.93836 306.18755,47.38529 307.40573,48.13973 L307.51177,48.13973 C311.7792,48.13973 315.27191,51.4869 315.48553,55.70126 C315.49253,55.83721 315.48553,55.97584 315.48553,56.1135 C315.48553,57.2682 315.23138,58.36205 314.79063,59.35247 C315.64063,60.6206 316.13333,62.1385 316.13333,63.78103 C316.13333,63.91868 316.14033,64.05732 316.13333,64.19326 C315.91971,68.40762 312.427,71.75479 308.15956,71.75479 C307.73792,71.75479 307.32697,71.72319 306.92287,71.66049 C305.67138,72.47722 304.17146,72.95608 302.56497,72.95608 C301.00901,72.95608 299.55231,72.51329 298.32486,71.74294 C298.16874,71.75294 298.01226,71.75474 297.85373,71.75474 C293.44864,71.75474 289.86819,68.18607 289.86819,63.78097 C289.86819,62.62066 290.12765,61.52262 290.57488,60.53021 C289.72261,59.26517 289.2204,57.7546 289.2204,56.11343 C289.2204,51.70833 292.80085,48.13966 297.20594,48.13966 C297.74368,48.13966 298.26558,48.19206 298.77242,48.29278 C300.04334,47.43773 301.56596,46.9383 303.21276,46.9383 L303.21273,46.93836 Z" id="Shape" stroke="#000000" stroke-width="1.1307" fill="#734B02" sketch:type="MSShapeGroup"></path>
            <path d="M306.90452,51.1619 C308.44328,51.1619 309.87934,51.60883 311.09752,52.36327 L311.20356,52.36327 C315.471,52.36327 318.9637,55.71044 319.17733,59.92479 C319.18433,60.06074 319.17733,60.19937 319.17733,60.33703 C319.17733,61.49173 318.92318,62.58558 318.48242,63.576 C319.33242,64.84413 319.82513,66.36203 319.82513,68.00456 C319.82513,68.14222 319.83213,68.28085 319.82513,68.41679 C319.6115,72.63115 316.1188,75.97833 311.85136,75.97833 C311.42972,75.97833 311.01877,75.94663 310.61466,75.88403 C309.36317,76.70077 307.86326,77.17963 306.25677,77.17963 C304.70081,77.17963 303.24411,76.73683 302.01665,75.96648 C301.86054,75.97648 301.70406,75.97828 301.54553,75.97828 C297.14043,75.97828 293.55999,72.40962 293.55999,68.00451 C293.55999,66.84422 293.81944,65.74617 294.26667,64.75377 C293.41441,63.48872 292.91219,61.97815 292.91219,60.33699 C292.91219,55.93189 296.49264,52.36322 300.89773,52.36322 C301.43547,52.36322 301.95737,52.41562 302.46422,52.51632 C303.73513,51.66129 305.25776,51.16185 306.90457,51.16185 L306.90452,51.1619 Z" id="Shape" opacity="0.8025" fill="#3B2906" sketch:type="MSShapeGroup"></path>
            <path d="M31.48996,80.44905 C32.9411,80.44905 34.29539,80.87053 35.4442,81.58201 L35.5442,81.58201 C39.56864,81.58201 42.86246,84.73859 43.06392,88.71297 C43.07092,88.84117 43.06392,88.97191 43.06392,89.10173 C43.06392,90.19068 42.82424,91.22224 42.40858,92.15627 C43.21018,93.35219 43.67483,94.78365 43.67483,96.33265 C43.67483,96.46247 43.68183,96.59321 43.67483,96.72141 C43.47337,100.69579 40.17955,103.85237 36.15511,103.85237 C35.75748,103.85237 35.36993,103.82257 34.98883,103.76347 C33.80861,104.5337 32.3941,104.98529 30.87909,104.98529 C29.41173,104.98529 28.03798,104.56771 26.88042,103.84123 C26.73319,103.85023 26.58562,103.85233 26.43612,103.85233 C22.28186,103.85233 18.90529,100.48687 18.90529,96.33261 C18.90529,95.23837 19.14998,94.20285 19.57174,93.26696 C18.76801,92.07395 18.29439,90.64939 18.29439,89.10168 C18.29439,84.94742 21.67096,81.58196 25.82521,81.58196 C26.33233,81.58196 26.82451,81.63136 27.3025,81.72636 C28.50104,80.92 29.93697,80.449 31.48999,80.449 L31.48996,80.44905 Z" id="Shape" stroke="#000000" stroke-width="1.06631" fill="#734B02" sketch:type="MSShapeGroup"></path>
            <path d="M33.38965,82.85019 C34.84078,82.85019 36.19507,83.27167 37.34389,83.98315 L37.44389,83.98315 C41.46833,83.98315 44.76215,87.13973 44.96361,91.11411 C44.97061,91.24231 44.96361,91.37305 44.96361,91.50287 C44.96361,92.59182 44.72393,93.62338 44.30827,94.5574 C45.10987,95.75333 45.57452,97.18479 45.57452,98.73379 C45.57452,98.86361 45.58152,98.99435 45.57452,99.12255 C45.37306,103.09693 42.07924,106.25351 38.0548,106.25351 C37.65717,106.25351 37.26962,106.22361 36.88852,106.16461 C35.7083,106.93484 34.29379,107.38643 32.77878,107.38643 C31.31142,107.38643 29.93767,106.96885 28.78011,106.24236 C28.63288,106.25136 28.48531,106.25346 28.33581,106.25346 C24.18155,106.25346 20.80499,102.88801 20.80499,98.73374 C20.80499,97.63951 21.04967,96.60399 21.47143,95.6681 C20.6677,94.47509 20.19408,93.05053 20.19408,91.50282 C20.19408,87.34856 23.57065,83.9831 27.7249,83.9831 C28.23202,83.9831 28.7242,84.0325 29.20219,84.12749 C30.40073,83.32114 31.83666,82.85014 33.38969,82.85014 L33.38965,82.85019 Z" id="Shape" fill="#3B2906" sketch:type="MSShapeGroup"></path>
            <path d="M108.65063,85.48126 C110.10177,85.48126 111.45606,85.90274 112.60487,86.61422 L112.70487,86.61422 C116.72931,86.61422 120.02313,89.7708 120.22459,93.74518 C120.23159,93.87338 120.22459,94.00412 120.22459,94.13394 C120.22459,95.22289 119.98491,96.25445 119.56925,97.18848 C120.37085,98.3844 120.8355,99.81586 120.8355,101.36486 C120.8355,101.49468 120.8425,101.62542 120.8355,101.75362 C120.63404,105.728 117.34022,108.88458 113.31578,108.88458 C112.91815,108.88458 112.5306,108.85478 112.1495,108.79568 C110.96928,109.56591 109.55477,110.0175 108.03976,110.0175 C106.5724,110.0175 105.19865,109.59992 104.04109,108.87344 C103.89386,108.88244 103.74629,108.88454 103.59679,108.88454 C99.44253,108.88454 96.06596,105.51908 96.06596,101.36482 C96.06596,100.27058 96.31065,99.23506 96.73241,98.29917 C95.92868,97.10616 95.45506,95.6816 95.45506,94.13389 C95.45506,89.97963 98.83163,86.61417 102.98588,86.61417 C103.493,86.61417 103.98518,86.66357 104.46317,86.75857 C105.66171,85.95221 107.09764,85.48121 108.65066,85.48121 L108.65063,85.48126 Z" id="Shape" stroke="#000000" stroke-width="1.06631" fill="#734B02" sketch:type="MSShapeGroup"></path>
            <path d="M110.55032,87.8824 C112.00145,87.8824 113.35574,88.30388 114.50456,89.01536 L114.60456,89.01536 C118.629,89.01536 121.92282,92.17194 122.12428,96.14632 C122.13128,96.27452 122.12428,96.40526 122.12428,96.53508 C122.12428,97.62403 121.8846,98.65559 121.46894,99.58961 C122.27054,100.78554 122.73519,102.217 122.73519,103.766 C122.73519,103.89582 122.74219,104.02656 122.73519,104.15476 C122.53373,108.12914 119.23991,111.28572 115.21547,111.28572 C114.81784,111.28572 114.43029,111.25582 114.04919,111.19682 C112.86897,111.96705 111.45446,112.41864 109.93945,112.41864 C108.47209,112.41864 107.09834,112.00106 105.94078,111.27457 C105.79355,111.28357 105.64598,111.28567 105.49648,111.28567 C101.34222,111.28567 97.96566,107.92022 97.96566,103.76595 C97.96566,102.67172 98.21034,101.6362 98.6321,100.70031 C97.82837,99.5073 97.35475,98.08274 97.35475,96.53503 C97.35475,92.38077 100.73132,89.01531 104.88557,89.01531 C105.39269,89.01531 105.88487,89.06471 106.36286,89.1597 C107.5614,88.35335 108.99733,87.88235 110.55036,87.88235 L110.55032,87.8824 Z" id="Shape" fill-opacity="0.507" fill="#3B2906" sketch:type="MSShapeGroup"></path>
            <path d="M273.04093,76.14619 C274.50392,76.14619 275.86926,76.41053 277.02744,76.85676 L277.12826,76.85676 C281.18554,76.85676 284.50624,78.8365 284.70934,81.32915 C284.71634,81.40955 284.70934,81.49155 284.70934,81.57297 C284.70934,82.25594 284.46771,82.90291 284.04866,83.48871 C284.8568,84.23877 285.32524,85.13655 285.32524,86.10805 C285.32524,86.18945 285.33224,86.27147 285.32524,86.35187 C285.12213,88.84452 281.80144,90.82426 277.74415,90.82426 C277.34328,90.82426 276.95257,90.80556 276.56836,90.76856 C275.37851,91.25163 273.95245,91.53486 272.42508,91.53486 C270.94575,91.53486 269.56079,91.27296 268.39378,90.81733 C268.24535,90.82333 268.09657,90.82433 267.94585,90.82433 C263.75769,90.82433 260.35357,88.71358 260.35357,86.10812 C260.35357,85.42183 260.60026,84.77238 261.02546,84.1854 C260.21517,83.43717 259.73768,82.54372 259.73768,81.57303 C259.73768,78.96756 263.14181,76.85681 267.32996,76.85681 C267.84122,76.85681 268.33741,76.88781 268.8193,76.94741 C270.02762,76.44168 271.47527,76.14628 273.04097,76.14628 L273.04093,76.14619 Z" id="Shape" stroke="#000000" stroke-width="0.8479" fill="#734B02" sketch:type="MSShapeGroup"></path>
            <path d="M274.95613,77.65213 C276.4191,77.65213 277.78444,77.91648 278.94264,78.3627 L279.04345,78.3627 C283.10073,78.3627 286.42143,80.34244 286.62454,82.83509 C286.63154,82.91549 286.62454,82.99749 286.62454,83.07891 C286.62454,83.76188 286.3829,84.40885 285.96385,84.99465 C286.77199,85.74471 287.24043,86.6425 287.24043,87.614 C287.24043,87.6954 287.24743,87.77742 287.24043,87.85782 C287.03733,90.35047 283.71663,92.33021 279.65935,92.33021 C279.25847,92.33021 278.86776,92.31151 278.48355,92.27441 C277.2937,92.75749 275.86765,93.04071 274.34027,93.04071 C272.86094,93.04071 271.47598,92.77882 270.30897,92.32318 C270.16054,92.32918 270.01177,92.33018 269.86105,92.33018 C265.67288,92.33018 262.26877,90.21944 262.26877,87.61397 C262.26877,86.92769 262.51545,86.27823 262.94065,85.69126 C262.13036,84.94303 261.65288,84.04957 261.65288,83.07888 C261.65288,80.47342 265.057,78.36267 269.24515,78.36267 C269.75641,78.36267 270.2526,78.39367 270.7345,78.45327 C271.94282,77.94754 273.39046,77.65214 274.95617,77.65214 L274.95613,77.65213 Z" id="Shape" fill-opacity="0.507" fill="#3B2906" sketch:type="MSShapeGroup"></path>
            <path d="M81.75258,45.99512 C83.21557,45.99512 84.58091,46.25946 85.73909,46.70569 L85.83991,46.70569 C89.89719,46.70569 93.21789,48.68543 93.42099,51.17808 C93.42799,51.25848 93.42099,51.34048 93.42099,51.4219 C93.42099,52.10487 93.17936,52.75184 92.76031,53.33764 C93.56845,54.0877 94.03689,54.98548 94.03689,55.95698 C94.03689,56.03838 94.04389,56.1204 94.03689,56.2008 C93.83378,58.69345 90.51309,60.67319 86.4558,60.67319 C86.05493,60.67319 85.66422,60.65449 85.28001,60.61749 C84.09016,61.10056 82.6641,61.38379 81.13673,61.38379 C79.6574,61.38379 78.27244,61.12189 77.10543,60.66626 C76.957,60.67226 76.80822,60.67326 76.6575,60.67326 C72.46934,60.67326 69.06522,58.56251 69.06522,55.95705 C69.06522,55.27076 69.31191,54.62131 69.73711,54.03433 C68.92682,53.2861 68.44933,52.39265 68.44933,51.42196 C68.44933,48.81649 71.85346,46.70574 76.04161,46.70574 C76.55287,46.70574 77.04906,46.73674 77.53095,46.79634 C78.73927,46.29061 80.18692,45.99521 81.75262,45.99521 L81.75258,45.99512 Z" id="Shape" stroke="#000000" stroke-width="0.8479" fill="#734B02" sketch:type="MSShapeGroup"></path>
            <path d="M83.66778,47.50106 C85.13075,47.50106 86.49609,47.76541 87.65429,48.21163 L87.7551,48.21163 C91.81238,48.21163 95.13308,50.19137 95.33619,52.68402 C95.34319,52.76442 95.33619,52.84642 95.33619,52.92784 C95.33619,53.61081 95.09455,54.25778 94.6755,54.84358 C95.48364,55.59364 95.95208,56.49143 95.95208,57.46293 C95.95208,57.54433 95.95908,57.62635 95.95208,57.70675 C95.74898,60.1994 92.42828,62.17914 88.371,62.17914 C87.97012,62.17914 87.57941,62.16044 87.1952,62.12334 C86.00535,62.60642 84.5793,62.88964 83.05192,62.88964 C81.57259,62.88964 80.18763,62.62775 79.02062,62.17211 C78.87219,62.17811 78.72342,62.17911 78.5727,62.17911 C74.38453,62.17911 70.98042,60.06837 70.98042,57.4629 C70.98042,56.77662 71.2271,56.12716 71.6523,55.54019 C70.84201,54.79196 70.36453,53.8985 70.36453,52.92781 C70.36453,50.32235 73.76865,48.2116 77.9568,48.2116 C78.46806,48.2116 78.96425,48.2426 79.44615,48.3022 C80.65447,47.79647 82.10211,47.50107 83.66782,47.50107 L83.66778,47.50106 Z" id="Shape" fill-opacity="0.507" fill="#3B2906" sketch:type="MSShapeGroup"></path>
            <path d="M206.58419,62.51323 C208.83828,62.51323 210.94191,62.92051 212.72637,63.60804 L212.88171,63.60804 C219.13293,63.60804 224.24927,66.65831 224.56219,70.49883 C224.57299,70.62271 224.56219,70.74905 224.56219,70.8745 C224.56219,71.92678 224.1899,72.92359 223.54425,73.82616 C224.78939,74.98181 225.51113,76.36505 225.51113,77.86188 C225.51113,77.9873 225.52193,78.11367 225.51113,78.23755 C225.19819,82.07808 220.08187,85.12835 213.83063,85.12835 C213.213,85.12835 212.61101,85.09955 212.01904,85.04255 C210.18579,85.78683 207.9886,86.22322 205.63532,86.22322 C203.35605,86.22322 201.22219,85.8197 199.42413,85.11769 C199.19544,85.12669 198.9662,85.12849 198.73398,85.12849 C192.28111,85.12849 187.03624,81.87637 187.03624,77.86203 C187.03624,76.80464 187.41633,75.804 188.07145,74.89962 C186.823,73.74679 186.08732,72.37021 186.08732,70.87463 C186.08732,66.86028 191.3322,63.60815 197.78506,63.60815 C198.57278,63.60815 199.33728,63.65595 200.07975,63.74775 C201.94145,62.96855 204.17191,62.51341 206.58425,62.51341 L206.58419,62.51323 Z" id="Shape" stroke="#000000" stroke-width="1.3064" fill="#734B02" sketch:type="MSShapeGroup"></path>
            <path d="M209.53501,64.8335 C211.78907,64.8335 213.89271,65.24079 215.6772,65.9283 L215.83252,65.9283 C222.08374,65.9283 227.20008,68.97857 227.51302,72.8191 C227.52382,72.94297 227.51302,73.06932 227.51302,73.19476 C227.51302,74.24704 227.14071,75.24386 226.49507,76.14642 C227.7402,77.30207 228.46195,78.68533 228.46195,80.18216 C228.46195,80.30758 228.47275,80.43395 228.46195,80.55783 C228.14902,84.39836 223.03268,87.44863 216.78146,87.44863 C216.16381,87.44863 215.56183,87.41983 214.96986,87.36263 C213.13661,88.10693 210.93943,88.5433 208.58613,88.5433 C206.30687,88.5433 204.173,88.1398 202.37494,87.43777 C202.14625,87.44677 201.91703,87.44857 201.68481,87.44857 C195.23193,87.44857 189.98707,84.19646 189.98707,80.18211 C189.98707,79.12473 190.36714,78.12408 191.02226,77.21971 C189.77382,76.06688 189.03814,74.69029 189.03814,73.19471 C189.03814,69.18037 194.28301,65.92825 200.73587,65.92825 C201.52359,65.92825 202.28809,65.97605 203.03057,66.06784 C204.89228,65.28864 207.12272,64.8335 209.53508,64.8335 L209.53501,64.8335 Z" id="Shape" fill-opacity="0.507" fill="#3B2906" sketch:type="MSShapeGroup"></path>
        </g>
    </g>
</svg>