<?xml version="1.0" encoding="UTF-8" standalone="no"?>
<svg width="197px" height="276px" viewBox="0 0 197 276" version="1.1" xmlns="http://www.w3.org/2000/svg" xmlns:xlink="http://www.w3.org/1999/xlink" xmlns:sketch="http://www.bohemiancoding.com/sketch/ns">
    <!-- Generator: Sketch 3.5.2 (25235) - http://www.bohemiancoding.com/sketch -->
    <title>mole</title>
    <desc>Created with Sketch.</desc>
    <defs>
        <linearGradient x1="-2.91199922%" y1="1913.75172%" x2="102.930973%" y2="1913.75172%" id="linearGradient-1">
            <stop stop-color="#F1AAC2" offset="0%"></stop>
            <stop stop-color="#E5638F" offset="100%"></stop>
        </linearGradient>
        <linearGradient x1="102.911999%" y1="1911.46876%" x2="-2.9309731%" y2="1911.46876%" id="linearGradient-2">
            <stop stop-color="#F1AAC2" offset="0%"></stop>
            <stop stop-color="#E5638F" offset="100%"></stop>
        </linearGradient>
        <linearGradient x1="27.3602544%" y1="18.7873013%" x2="90.1838279%" y2="90.3397894%" id="linearGradient-3">
            <stop stop-color="#FFCEAE" offset="0%"></stop>
            <stop stop-color="#FFB280" offset="100%"></stop>
        </linearGradient>
        <linearGradient x1="-8.6108091%" y1="1770.32632%" x2="108.55641%" y2="1770.32632%" id="linearGradient-4">
            <stop stop-color="#8A8A8A" offset="0%"></stop>
            <stop stop-color="#F1F1F1" offset="28.57%"></stop>
            <stop stop-color="#FFFFFF" offset="100%"></stop>
        </linearGradient>
        <linearGradient x1="-8.63327515%" y1="1772.18319%" x2="108.533944%" y2="1772.18319%" id="linearGradient-5">
            <stop stop-color="#8A8A8A" offset="0%"></stop>
            <stop stop-color="#F1F1F1" offset="28.57%"></stop>
            <stop stop-color="#FFFFFF" offset="100%"></stop>
        </linearGradient>
    </defs>
    <g id="Page-1" stroke="none" stroke-width="1" fill="none" fill-rule="evenodd" sketch:type="MSPage">
        <g id="mole" sketch:type="MSLayerGroup" transform="translate(3.323440, 2.016670)">
            <path d="M94.7684787,0.910105958 C94.5239962,0.910105958 94.1940256,0.947852969 93.9289099,0.95201723 L93.9289099,0.993928502 C79.3030178,1.16431394 43.7467171,4.25959571 30.6674046,36.1298807 C24.1485495,27.4651954 30.6620314,36.1325673 9.63620742,16.1901229 C9.63620742,16.1901229 -16.7438353,42.0376103 19.2492696,60.3934176 C31.7512543,176.386302 6.28102203,220.95906 80.2859177,219.36576 C84.5021111,219.274953 89.1307409,219.336208 93.9289099,219.449717 L94.0547781,219.449717 L96.2376568,219.491629 L96.2376568,219.407672 C101.040098,219.293893 105.661017,219.232813 109.880649,219.323715 C183.885545,220.917015 158.415312,176.344256 170.917297,60.351372 C206.910402,41.9955647 180.530359,16.1480773 180.530359,16.1480773 C159.504844,36.0907098 166.018017,27.4231498 159.499162,36.0878351 C145.978317,3.14166626 108.371615,0.909904462 94.7684115,0.909904462 L94.7684787,0.910105958 Z" id="Shape" stroke="#000000" stroke-width="5.81003068" fill="#333333" sketch:type="MSShapeGroup"></path>
            <path d="M166.443818,194.154781 C166.443818,236.683432 135.246002,271.159715 96.7615554,271.159715 C58.2771084,271.159715 27.0792931,236.683432 27.0792931,194.154781 C27.0792931,151.62613 58.2771084,117.149835 96.7615554,117.149835 C135.246002,117.149835 166.443818,151.62613 166.443818,194.154781 L166.443818,194.154781 Z" id="Shape" stroke="#000000" stroke-width="2.70512659" fill="#93939F" sketch:type="MSShapeGroup"></path>
            <path d="M95.720778,118.043863 C133.148484,119.3746 163.138149,153.305831 163.138149,194.990339 C163.138149,234.332088 136.441568,266.748468 101.975565,271.391095 C126.023595,264.677111 144.205873,233.2727 144.205873,195.536059 C144.205873,154.58258 122.802176,121.078159 95.720778,118.505626 L95.720778,118.043863 L95.720778,118.043863 Z" id="Shape" fill="#7F7F8D" sketch:type="MSShapeGroup"></path>
            <path d="M95.5398476,116.904293 C58.1121414,118.23503 28.1224769,152.166261 28.1224769,193.850769 C28.1224769,233.192517 54.8190572,265.608898 89.2850604,270.251525 C65.2370307,263.537541 47.0547523,232.133129 47.0547523,194.396489 C47.0547523,153.44301 68.4584493,119.938589 95.5398476,117.366056 L95.5398476,116.904293 L95.5398476,116.904293 Z" id="Shape" fill="#C1C1C8" sketch:type="MSShapeGroup"></path>
            <path d="M69.5126253,29.4483642 C52.237484,29.4483642 38.2082231,45.6680265 38.2082231,65.656439 C38.2082231,85.6448515 52.237484,101.862579 69.5126253,101.862579 C79.6646772,101.862579 88.6721483,96.2559124 94.3911563,87.5796074 C100.108217,96.2617155 109.136993,101.862579 119.294861,101.862579 C136.564186,101.862579 150.595394,85.6409962 150.595394,65.656439 C150.595394,45.6718818 136.564186,29.4483642 119.294861,29.4483642 C109.13894,29.4483642 100.108217,35.0531103 94.3911563,43.733284 C88.6721483,35.0589134 79.6627428,29.4483642 69.5126253,29.4483642 L69.5126253,29.4483642 Z" id="Shape" stroke="#000000" stroke-width="5.48446607" fill="#FFFFFF" sketch:type="MSShapeGroup"></path>
            <path d="M134.866153,32.9480239 C135.248333,35.2457651 135.429769,37.6323269 135.429769,40.0584377 C135.429769,60.6988367 120.965564,77.4313722 103.129487,77.4313722 C92.6382583,77.4313722 83.2806574,71.6573401 77.3759681,62.6903072 C71.4692857,71.6513436 62.1943876,77.4313722 51.7091724,77.4313722 C46.5076649,77.4313722 41.5839535,76.0149912 37.2282434,73.4859699 C40.1013168,90.7328502 53.2226407,103.791887 68.9648914,103.791887 C79.450124,103.791887 88.7683665,97.9684967 94.6750489,89.0074603 C100.579738,97.9744932 109.893977,103.791887 120.385206,103.791887 C138.221284,103.791887 152.72885,87.0159898 152.72885,66.3755734 C152.72885,51.7496373 145.449755,39.0936293 134.866153,32.9480239 L134.866153,32.9480239 Z" id="Shape" opacity="0.3374" fill="#A5A5A5" sketch:type="MSShapeGroup"></path>
            <g id="Group" transform="translate(73.930691, 58.411444)" sketch:type="MSShapeGroup">
                <path d="M18.4817076,9.69500453 C18.4817076,14.6993776 14.4224328,18.7567157 9.41805973,18.7567157 C4.41368664,18.7567157 0.356348548,14.6993776 0.356348548,9.69500453 C0.356348548,4.68869476 4.41562332,0.631356667 9.41805973,0.631356667 C14.4243695,0.633293344 18.4817076,4.68869476 18.4817076,9.69500453 L18.4817076,9.69500453 Z" id="Shape" stroke="#000000" stroke-width="3.47633502" fill="#000000"></path>
                <path d="M8.50007488,6.5207911 C8.50007488,7.81836462 7.44652265,8.86998017 6.14894914,8.86998017 C4.85137562,8.86998017 3.79976006,7.81836462 3.79976006,6.5207911 C3.79976006,5.22321758 4.85137562,4.16966535 6.14894914,4.16966535 C7.44652265,4.16966535 8.50007488,5.22321758 8.50007488,6.5207911 L8.50007488,6.5207911 Z" id="Shape" fill="#FFFFFF"></path>
            </g>
            <g id="Group" transform="translate(97.170814, 58.411444)" sketch:type="MSShapeGroup">
                <path d="M18.1931427,9.69500453 C18.1931427,14.6993776 14.1358046,18.7567157 9.13143155,18.7567157 C4.12512178,18.7567157 0.0677836913,14.6993776 0.0677836913,9.69500453 C0.0677836913,4.68869476 4.12512178,0.631356667 9.13143155,0.631356667 C14.1377413,0.631356667 18.1931427,4.68869476 18.1931427,9.69500453 L18.1931427,9.69500453 Z" id="Shape" stroke="#000000" stroke-width="3.47633502" fill="#000000"></path>
                <path d="M8.20957335,6.5207911 C8.20957335,7.81836462 7.1579578,8.86998017 5.86038428,8.86998017 C4.56281076,8.86998017 3.51119521,7.81836462 3.51119521,6.5207911 C3.51119521,5.22321758 4.56281076,4.16966535 5.86038428,4.16966535 C7.1579578,4.16966535 8.20957335,5.22321758 8.20957335,6.5207911 L8.20957335,6.5207911 Z" id="Shape" fill="#FFFFFF"></path>
            </g>
            <path d="M7.26303537,25.5937093 C7.26303537,25.5937093 -6.38209268,41.4090487 17.3373499,56.4045123 C21.1453382,52.7151651 21.6897952,52.0625716 26.1691699,48.5106988 L26.1691699,45.6561651 C20.7427079,42.6965039 23.2475378,38.825568 14.397919,27.8241815 L7.26303537,25.5937093 L7.26303537,25.5937093 Z" id="Shape" stroke="#000000" stroke-width="1.34331" fill="url(#linearGradient-1)" sketch:type="MSShapeGroup"></path>
            <path d="M184.264197,26.2971067 C184.264197,26.2971067 197.909325,42.1124461 174.189882,57.1079097 C170.381894,53.4185625 169.837437,52.7659691 165.358062,49.2140962 L165.358062,46.3595625 C170.784524,43.3999013 168.279695,39.5289654 177.129313,28.5275789 L184.264197,26.2971067 L184.264197,26.2971067 Z" id="Shape" stroke="#000000" stroke-width="1.34331" fill="url(#linearGradient-2)" sketch:type="MSShapeGroup"></path>
            <path d="M86.7076649,120.297145 C124.135371,121.627882 154.125036,155.559113 154.125036,197.243621 C154.125036,236.585369 127.428455,269.00175 92.9624521,273.644377 C117.010482,266.930393 135.19276,235.525981 135.19276,197.789341 C135.19276,156.835862 113.789063,123.33144 86.7076649,120.758908 L86.7076649,120.297145 L86.7076649,120.297145 Z" id="Shape" fill="#7F7F8D" sketch:type="MSShapeGroup"></path>
            <path d="M95.0527365,91.068694 C83.50739,91.068694 73.5501718,96.7597745 68.9841268,104.958587 C58.4525361,108.211304 51.6890106,113.313585 51.6890106,119.038007 C51.6890106,120.61473 52.2350795,122.158046 53.2002343,123.613818 C52.4751962,125.302519 52.1087949,127.061799 52.1087949,128.866536 C52.1087949,141.909794 72.1077121,152.476646 96.7738524,152.476646 C121.439993,152.476646 141.43891,141.909794 141.43891,128.866536 C141.43891,126.790665 140.920849,124.773779 139.969665,122.855694 C140.639184,121.629789 141.019126,120.343906 141.019126,119.038007 C141.019126,112.770472 132.89832,107.260281 120.617605,104.092165 C115.850198,96.3580711 106.190294,91.068694 95.0527365,91.068694 L95.0527365,91.068694 Z" id="Shape" stroke="#000000" stroke-width="2.68662" fill="url(#linearGradient-3)" sketch:type="MSShapeGroup"></path>
            <path d="M111.403264,98.953252 C111.403264,107.664402 104.341483,114.726183 95.6303329,114.726183 C86.9191825,114.726183 79.8574018,107.664402 79.8574018,98.953252 C79.8574018,90.2421016 86.9191825,83.1803075 95.6303329,83.1803075 C104.341483,83.1803075 111.403264,90.2420882 111.403264,98.953252 L111.403264,98.953252 Z" id="Shape" fill="#000000" sketch:type="MSShapeGroup"></path>
            <path d="M76.4845116,132.95005 L94.3625841,132.95005 L94.3625841,160.192821 L76.4845116,160.192821 L76.4845116,132.95005 Z" id="Shape" stroke="#000000" stroke-width="3.04518974" fill="url(#linearGradient-4)" sketch:type="MSShapeGroup"></path>
            <path d="M94.5812347,132.444187 L112.459307,132.444187 L112.459307,159.686957 L94.5812347,159.686957 L94.5812347,132.444187 Z" id="Shape" stroke="#000000" stroke-width="3.04518974" fill="url(#linearGradient-5)" sketch:type="MSShapeGroup"></path>
            <path d="M59.5778941,123.739283 C85.550766,138.236405 109.839866,135.895782 132.809379,120.359367" id="Shape" stroke="#000000" stroke-width="5.37324" sketch:type="MSShapeGroup"></path>
        </g>
    </g>
</svg>